<svg width="375" height="375" viewBox="0 0 375 375" fill="none" xmlns="http://www.w3.org/2000/svg">
<rect width="375" height="375" rx="15" fill="#FDFDFD"/>
<path d="M146.622 165.88L139.182 208H128.922L136.362 165.88H146.622ZM201.757 165.88L194.317 208H184.057L188.557 182.74L174.637 208H166.357L161.317 182.62L156.877 208H146.617L154.057 165.88H166.177L172.897 195.04L189.697 165.88H201.757ZM203.735 186.88C204.455 182.72 205.995 179.02 208.355 175.78C210.755 172.5 213.735 169.96 217.295 168.16C220.855 166.32 224.715 165.4 228.875 165.4C233.915 165.4 237.955 166.62 240.995 169.06C244.075 171.5 245.755 174.88 246.035 179.2H234.755C234.235 177.8 233.315 176.74 231.995 176.02C230.715 175.26 229.135 174.88 227.255 174.88C223.935 174.88 221.075 175.98 218.675 178.18C216.315 180.34 214.815 183.24 214.175 186.88C213.975 188.08 213.875 189.12 213.875 190C213.875 192.96 214.735 195.24 216.455 196.84C218.175 198.44 220.615 199.24 223.775 199.24C226.335 199.24 228.595 198.6 230.555 197.32C232.515 196 234.095 194.14 235.295 191.74H222.335L223.595 184.24H245.915L244.235 193.78C243.035 196.34 241.315 198.72 239.075 200.92C236.875 203.12 234.255 204.9 231.215 206.26C228.175 207.62 224.895 208.3 221.375 208.3C217.735 208.3 214.535 207.6 211.775 206.2C209.055 204.76 206.955 202.76 205.475 200.2C204.035 197.64 203.315 194.66 203.315 191.26C203.315 190.1 203.455 188.64 203.735 186.88Z" fill="#353353"/>
</svg>
