<svg width="70" height="70" viewBox="0 0 70 70" fill="none" xmlns="http://www.w3.org/2000/svg">
<rect width="70" height="70" rx="15" fill="#FDFFFE"/>
<path d="M31.9664 22.9158L24.869 14.7233C24.0508 13.7792 22.5507 13.7834 21.6004 14.7359L15.7639 20.5829C14.0268 22.3221 13.5295 24.9046 14.5345 26.9753C20.538 39.4056 30.5629 49.4446 42.9848 55.4655C45.0534 56.4705 47.6339 55.9732 49.371 54.234L55.262 48.3325C56.2166 47.3779 56.2187 45.8695 55.2662 45.0513L47.0422 37.9917C46.1821 37.2532 44.8457 37.3497 43.9834 38.2141L41.1218 41.0799C40.9753 41.2334 40.7825 41.3346 40.5729 41.368C40.3633 41.4013 40.1486 41.365 39.9617 41.2645C35.2841 38.5709 31.4041 34.6858 28.7166 30.0048C28.616 29.8175 28.5795 29.6024 28.6129 29.3925C28.6462 29.1826 28.7475 28.9893 28.9012 28.8425L31.7545 25.9872C32.6188 25.1186 32.7132 23.7759 31.9664 22.9137V22.9158Z" stroke="#789BD6" stroke-width="2" stroke-linecap="round" stroke-linejoin="round"/>
</svg>
