<svg width="70" height="70" viewBox="0 0 70 70" fill="none" xmlns="http://www.w3.org/2000/svg">
<rect width="70" height="70" rx="15" fill="#FDFFFE"/>
<path d="M34.386 52.5614C28.5015 52.5614 23.2996 49.5485 20.2632 45.0292C20.3338 40.3216 29.6784 37.7325 34.386 37.7325C39.0936 37.7325 48.4382 40.3216 48.5088 45.0292C46.9526 47.3463 44.8506 49.2453 42.3879 50.5587C39.9251 51.8722 37.1771 52.56 34.386 52.5614V52.5614ZM34.386 19.1374C36.2588 19.1374 38.0549 19.8814 39.3791 21.2057C40.7034 22.5299 41.4474 24.326 41.4474 26.1988C41.4474 28.0716 40.7034 29.8677 39.3791 31.192C38.0549 32.5163 36.2588 33.2602 34.386 33.2602C32.5132 33.2602 30.7171 32.5163 29.3928 31.192C28.0685 29.8677 27.3246 28.0716 27.3246 26.1988C27.3246 24.326 28.0685 22.5299 29.3928 21.2057C30.7171 19.8814 32.5132 19.1374 34.386 19.1374V19.1374ZM34.386 12.076C31.2949 12.076 28.2341 12.6849 25.3784 13.8677C22.5226 15.0506 19.9278 16.7844 17.7421 18.9701C13.3278 23.3844 10.848 29.3714 10.848 35.614C10.848 41.8567 13.3278 47.8437 17.7421 52.2579C19.9278 54.4436 22.5226 56.1774 25.3784 57.3603C28.2341 58.5432 31.2949 59.152 34.386 59.152C40.6286 59.152 46.6156 56.6722 51.0299 52.2579C55.4441 47.8437 57.924 41.8567 57.924 35.614C57.924 22.5975 47.3319 12.076 34.386 12.076Z" fill="#6491E2"/>
</svg>
