<svg width="198" height="52" viewBox="0 0 198 52" fill="none" xmlns="http://www.w3.org/2000/svg">
<path d="M36.6074 35.4237L41.2611 49.7505L25.5085 38.301L36.6074 35.4237ZM51 19.7837H31.5244L25.5106 1.25162L19.4756 19.788L0 19.7625L15.7717 31.2311L9.73675 49.7484L25.5085 38.2989L35.2474 31.2311L51 19.7859V19.7837Z" fill="#64BC99"/>
<path d="M71.72 19.15V21.94H66.17V40H62.75V21.94H57.17V19.15H71.72ZM78.6036 25.87C79.1036 25.03 79.7636 24.38 80.5836 23.92C81.4236 23.44 82.4136 23.2 83.5536 23.2V26.74H82.6836C81.3436 26.74 80.3236 27.08 79.6236 27.76C78.9436 28.44 78.6036 29.62 78.6036 31.3V40H75.1836V23.47H78.6036V25.87ZM101.667 23.47V40H98.2473V38.05C97.7073 38.73 96.9973 39.27 96.1173 39.67C95.2573 40.05 94.3373 40.24 93.3573 40.24C92.0573 40.24 90.8873 39.97 89.8473 39.43C88.8273 38.89 88.0173 38.09 87.4173 37.03C86.8373 35.97 86.5473 34.69 86.5473 33.19V23.47H89.9373V32.68C89.9373 34.16 90.3073 35.3 91.0473 36.1C91.7873 36.88 92.7973 37.27 94.0773 37.27C95.3573 37.27 96.3673 36.88 97.1073 36.1C97.8673 35.3 98.2473 34.16 98.2473 32.68V23.47H101.667ZM112.18 40.27C110.88 40.27 109.71 40.04 108.67 39.58C107.65 39.1 106.84 38.46 106.24 37.66C105.64 36.84 105.32 35.93 105.28 34.93H108.82C108.88 35.63 109.21 36.22 109.81 36.7C110.43 37.16 111.2 37.39 112.12 37.39C113.08 37.39 113.82 37.21 114.34 36.85C114.88 36.47 115.15 35.99 115.15 35.41C115.15 34.79 114.85 34.33 114.25 34.03C113.67 33.73 112.74 33.4 111.46 33.04C110.22 32.7 109.21 32.37 108.43 32.05C107.65 31.73 106.97 31.24 106.39 30.58C105.83 29.92 105.55 29.05 105.55 27.97C105.55 27.09 105.81 26.29 106.33 25.57C106.85 24.83 107.59 24.25 108.55 23.83C109.53 23.41 110.65 23.2 111.91 23.2C113.79 23.2 115.3 23.68 116.44 24.64C117.6 25.58 118.22 26.87 118.3 28.51H114.88C114.82 27.77 114.52 27.18 113.98 26.74C113.44 26.3 112.71 26.08 111.79 26.08C110.89 26.08 110.2 26.25 109.72 26.59C109.24 26.93 109 27.38 109 27.94C109 28.38 109.16 28.75 109.48 29.05C109.8 29.35 110.19 29.59 110.65 29.77C111.11 29.93 111.79 30.14 112.69 30.4C113.89 30.72 114.87 31.05 115.63 31.39C116.41 31.71 117.08 32.19 117.64 32.83C118.2 33.47 118.49 34.32 118.51 35.38C118.51 36.32 118.25 37.16 117.73 37.9C117.21 38.64 116.47 39.22 115.51 39.64C114.57 40.06 113.46 40.27 112.18 40.27ZM126.195 26.26V35.41C126.195 36.03 126.335 36.48 126.615 36.76C126.915 37.02 127.415 37.15 128.115 37.15H130.215V40H127.515C125.975 40 124.795 39.64 123.975 38.92C123.155 38.2 122.745 37.03 122.745 35.41V26.26H120.795V23.47H122.745V19.36H126.195V23.47H130.215V26.26H126.195ZM136.787 25.9C137.367 25.14 138.157 24.5 139.157 23.98C140.157 23.46 141.287 23.2 142.547 23.2C143.987 23.2 145.297 23.56 146.477 24.28C147.677 24.98 148.617 25.97 149.297 27.25C149.977 28.53 150.317 30 150.317 31.66C150.317 33.32 149.977 34.81 149.297 36.13C148.617 37.43 147.677 38.45 146.477 39.19C145.297 39.91 143.987 40.27 142.547 40.27C141.287 40.27 140.167 40.02 139.187 39.52C138.207 39 137.407 38.36 136.787 37.6V47.86H133.367V23.47H136.787V25.9ZM146.837 31.66C146.837 30.52 146.597 29.54 146.117 28.72C145.657 27.88 145.037 27.25 144.257 26.83C143.497 26.39 142.677 26.17 141.797 26.17C140.937 26.17 140.117 26.39 139.337 26.83C138.577 27.27 137.957 27.91 137.477 28.75C137.017 29.59 136.787 30.58 136.787 31.72C136.787 32.86 137.017 33.86 137.477 34.72C137.957 35.56 138.577 36.2 139.337 36.64C140.117 37.08 140.937 37.3 141.797 37.3C142.677 37.3 143.497 37.08 144.257 36.64C145.037 36.18 145.657 35.52 146.117 34.66C146.597 33.8 146.837 32.8 146.837 31.66ZM155.439 21.28C154.819 21.28 154.299 21.07 153.879 20.65C153.459 20.23 153.249 19.71 153.249 19.09C153.249 18.47 153.459 17.95 153.879 17.53C154.299 17.11 154.819 16.9 155.439 16.9C156.039 16.9 156.549 17.11 156.969 17.53C157.389 17.95 157.599 18.47 157.599 19.09C157.599 19.71 157.389 20.23 156.969 20.65C156.549 21.07 156.039 21.28 155.439 21.28ZM157.119 23.47V40H153.699V23.47H157.119ZM165.029 17.8V40H161.609V17.8H165.029ZM176.69 40.27C175.13 40.27 173.72 39.92 172.46 39.22C171.2 38.5 170.21 37.5 169.49 36.22C168.77 34.92 168.41 33.42 168.41 31.72C168.41 30.04 168.78 28.55 169.52 27.25C170.26 25.95 171.27 24.95 172.55 24.25C173.83 23.55 175.26 23.2 176.84 23.2C178.42 23.2 179.85 23.55 181.13 24.25C182.41 24.95 183.42 25.95 184.16 27.25C184.9 28.55 185.27 30.04 185.27 31.72C185.27 33.4 184.89 34.89 184.13 36.19C183.37 37.49 182.33 38.5 181.01 39.22C179.71 39.92 178.27 40.27 176.69 40.27ZM176.69 37.3C177.57 37.3 178.39 37.09 179.15 36.67C179.93 36.25 180.56 35.62 181.04 34.78C181.52 33.94 181.76 32.92 181.76 31.72C181.76 30.52 181.53 29.51 181.07 28.69C180.61 27.85 180 27.22 179.24 26.8C178.48 26.38 177.66 26.17 176.78 26.17C175.9 26.17 175.08 26.38 174.32 26.8C173.58 27.22 172.99 27.85 172.55 28.69C172.11 29.51 171.89 30.52 171.89 31.72C171.89 33.5 172.34 34.88 173.24 35.86C174.16 36.82 175.31 37.3 176.69 37.3ZM192.64 26.26V35.41C192.64 36.03 192.78 36.48 193.06 36.76C193.36 37.02 193.86 37.15 194.56 37.15H196.66V40H193.96C192.42 40 191.24 39.64 190.42 38.92C189.6 38.2 189.19 37.03 189.19 35.41V26.26H187.24V23.47H189.19V19.36H192.64V23.47H196.66V26.26H192.64Z" fill="#3C3A3D"/>
</svg>
