<svg width="70" height="70" viewBox="0 0 70 70" fill="none" xmlns="http://www.w3.org/2000/svg">
<rect width="70" height="70" rx="15" fill="#FDFFFE"/>
<path d="M51.5342 16.9627C55.0214 16.9627 57.8472 19.7886 57.8472 23.2758V46.7242C57.8472 50.2114 55.0214 53.0373 51.5342 53.0373H18.4658C16.7915 53.0373 15.1858 52.3722 14.0018 51.1882C12.8179 50.0043 12.1528 48.3986 12.1528 46.7242V23.2758C12.1528 19.7886 14.9786 16.9627 18.4658 16.9627H51.5342ZM54.841 28.2072L35.7239 38.7217C35.5272 38.8298 35.3088 38.8926 35.0847 38.9053C34.8606 38.918 34.6365 38.8803 34.4288 38.795L34.2761 38.7229L15.159 28.206V46.7242C15.159 47.6013 15.5074 48.4424 16.1275 49.0625C16.7477 49.6827 17.5888 50.0311 18.4658 50.0311H51.5342C52.4112 50.0311 53.2523 49.6827 53.8725 49.0625C54.4926 48.4424 54.841 47.6013 54.841 46.7242V28.2072ZM51.5342 19.9689H18.4658C17.5888 19.9689 16.7477 20.3173 16.1275 20.9375C15.5074 21.5576 15.159 22.3987 15.159 23.2758V24.7777L35 35.689L54.841 24.7765V23.2758C54.841 22.3987 54.4926 21.5576 53.8725 20.9375C53.2523 20.3173 52.4112 19.9689 51.5342 19.9689Z" fill="#6799E7"/>
</svg>
