<svg width="70" height="70" viewBox="0 0 70 70" fill="none" xmlns="http://www.w3.org/2000/svg">
<rect width="70" height="70" rx="15" fill="#FDFFFE"/>
<path d="M42.3855 47.2807L27.6417 38.0702M42.3855 22.7193L27.6417 31.9298M48.2018 26.1988C49.9524 26.1988 51.6314 25.5034 52.8693 24.2655C54.1072 23.0276 54.8026 21.3486 54.8026 19.598C54.8026 17.8473 54.1072 16.1683 52.8693 14.9304C51.6314 13.6925 49.9524 12.9971 48.2018 12.9971C46.4511 12.9971 44.7721 13.6925 43.5342 14.9304C42.2963 16.1683 41.6009 17.8473 41.6009 19.598C41.6009 21.3486 42.2963 23.0276 43.5342 24.2655C44.7721 25.5034 46.4511 26.1988 48.2018 26.1988ZM21.7982 41.6009C23.5489 41.6009 25.2279 40.9054 26.4658 39.6675C27.7037 38.4296 28.3991 36.7507 28.3991 35C28.3991 33.2493 27.7037 31.5704 26.4658 30.3325C25.2279 29.0946 23.5489 28.3991 21.7982 28.3991C20.0476 28.3991 18.3686 29.0946 17.1307 30.3325C15.8928 31.5704 15.1974 33.2493 15.1974 35C15.1974 36.7507 15.8928 38.4296 17.1307 39.6675C18.3686 40.9054 20.0476 41.6009 21.7982 41.6009ZM48.2018 57.0029C49.9524 57.0029 51.6314 56.3075 52.8693 55.0696C54.1072 53.8317 54.8026 52.1527 54.8026 50.402C54.8026 48.6514 54.1072 46.9724 52.8693 45.7345C51.6314 44.4966 49.9524 43.8012 48.2018 43.8012C46.4511 43.8012 44.7721 44.4966 43.5342 45.7345C42.2963 46.9724 41.6009 48.6514 41.6009 50.402C41.6009 52.1527 42.2963 53.8317 43.5342 55.0696C44.7721 56.3075 46.4511 57.0029 48.2018 57.0029Z" stroke="black" stroke-width="2"/>
</svg>
