<svg width="375" height="375" viewBox="0 0 375 375" fill="none" xmlns="http://www.w3.org/2000/svg">
<rect width="375" height="375" rx="15" fill="#FDFDFD"/>
<path d="M145.625 20H20V145.625H145.625V20ZM124.688 124.688H40.9375V40.9375H124.688V124.688Z" fill="black"/>
<path d="M61.875 61.875H103.75V103.75H61.875V61.875Z" fill="black"/>
<path d="M20 355H145.625V229.375H20V355ZM40.9375 250.312H124.688V334.062H40.9375V250.312Z" fill="black"/>
<path d="M61.875 271.25H103.75V313.125H61.875V271.25Z" fill="black"/>
<path d="M229.375 20V145.625H355V20H229.375ZM334.062 124.688H250.312V40.9375H334.062V124.688Z" fill="black"/>
<path d="M271.25 61.875H313.125V103.75H271.25V61.875Z" fill="black"/>
<path d="M61.875 166.562H20V208.438H82.8125V187.5H61.875V166.562Z" fill="black"/>
<path d="M166.562 208.438H208.438V250.312H166.562V208.438Z" fill="black"/>
<path d="M82.8125 166.562H124.688V187.5H82.8125V166.562Z" fill="black"/>
<path d="M208.438 271.25H166.562V292.188H187.5V313.125H208.438V292.188V271.25Z" fill="black"/>
<path d="M145.625 166.562V187.5H124.688V208.438H166.562V166.562H145.625Z" fill="black"/>
<path d="M187.5 103.75H208.438V145.625H187.5V103.75Z" fill="black"/>
<path d="M208.438 187.5V208.438H250.312V166.562H187.5V187.5H208.438Z" fill="black"/>
<path d="M166.562 145.625H187.5V166.562H166.562V145.625Z" fill="black"/>
<path d="M208.438 313.125H250.312V355H208.438V313.125Z" fill="black"/>
<path d="M166.562 313.125H187.5V355H166.562V313.125Z" fill="black"/>
<path d="M208.438 250.312H229.375V271.25H208.438V250.312Z" fill="black"/>
<path d="M208.438 82.8125V40.9375H187.5V20H166.562V103.75H187.5V82.8125H208.438Z" fill="black"/>
<path d="M271.25 313.125H292.188V355H271.25V313.125Z" fill="black"/>
<path d="M271.25 271.25H313.125V292.188H271.25V271.25Z" fill="black"/>
<path d="M250.312 292.188H271.25V313.125H250.312V292.188Z" fill="black"/>
<path d="M229.375 271.25H250.312V292.188H229.375V271.25Z" fill="black"/>
<path d="M313.125 229.375V250.312H334.062V271.25H355V229.375H334.062H313.125Z" fill="black"/>
<path d="M334.062 292.188H313.125V355H355V313.125H334.062V292.188Z" fill="black"/>
<path d="M229.375 229.375V250.312H292.188V208.438H250.312V229.375H229.375Z" fill="black"/>
<path d="M271.25 166.562V187.5H313.125V208.438H355V166.562H313.125H271.25Z" fill="black"/>
</svg>
